<?xml version="1.0" encoding="UTF-8"?>
<svg width="24px" height="24px" viewBox="0 0 24 24" version="1.1" xmlns="http://www.w3.org/2000/svg" xmlns:xlink="http://www.w3.org/1999/xlink">
    <title>applePay_btn_hover_abc_POC@1x</title>
    <defs>
        <path d="M19.33,15.9100209 L2.67,15.9100209 C2.0308266,15.9126577 1.41677691,15.661293 0.962937674,15.2112045 C0.50909844,14.761116 0.252646669,14.1491735 0.25,13.51 L0.25,2.81 C0.252646669,2.17082655 0.50909844,1.55888398 0.962937674,1.10879549 C1.41677691,0.658706992 2.0308266,0.407342326 2.67,0.409979138 L19.33,0.409979138 C19.9691734,0.407342326 20.5832231,0.658706992 21.0370623,1.10879549 C21.4909016,1.55888398 21.7473533,2.17082655 21.75,2.81 L21.75,13.51 C21.7473533,14.1491735 21.4909016,14.761116 21.0370623,15.2112045 C20.5832231,15.661293 19.9691734,15.9126577 19.33,15.9100209 Z M2.67,1.90994438 C2.42864869,1.90733321 2.19612464,2.00065963 2.02358798,2.16944549 C1.85105132,2.33823136 1.75263764,2.56864837 1.75,2.81 L1.75,13.51 C1.75263764,13.7513516 1.85105132,13.9817686 2.02358798,14.1505545 C2.19612464,14.3193404 2.42864869,14.4126668 2.67,14.4100556 L19.33,14.4100556 C19.5713513,14.4126668 19.8038754,14.3193404 19.976412,14.1505545 C20.1489487,13.9817686 20.2473624,13.7513516 20.25,13.51 L20.25,2.81 C20.2473624,2.56864837 20.1489487,2.33823136 19.976412,2.16944549 C19.8038754,2.00065963 19.5713513,1.90733321 19.33,1.90994438 L2.67,1.90994438 Z" id="path-1"></path>
    </defs>
    <g id="applePay_btn_hover_abc_POC" stroke="none" stroke-width="1" fill="none" fill-rule="evenodd">
        <g id="icons/action/CC-amex">
            <g id="CC-amex" transform="translate(1.000000, 4.000000)">
                <g id="colors/35C3EF">
                    <mask id="mask-2" fill="white">
                        <use xlink:href="#path-1"></use>
                    </mask>
                    <use id="Mask" fill="#0094D4" fill-rule="nonzero" xlink:href="#path-1"></use>
                    <g mask="url(#mask-2)" id="colors/549ED1">
                        <g transform="translate(-1.000000, -4.000000)">
                            <g>
                                <rect fill="#549ED1" x="0" y="0" width="24" height="24"></rect>
                            </g>
                        </g>
                    </g>
                </g>
            </g>
            <rect id="frame" stroke="#FFFFFF" stroke-width="0.01" opacity="0.01" x="0.005" y="0.005" width="23.99" height="23.99"></rect>
        </g>
        <g id="apple-logo" transform="translate(4.000000, 9.000000)" fill="#549ED1" fill-rule="nonzero">
            <path d="M4.06875,3.63916667 C4.05541667,3.67680556 4.0425,3.71722222 4.02763889,3.75694444 C3.90458333,4.09013889 3.71777778,4.38597222 3.49111111,4.65708333 C3.44736111,4.70986111 3.39638889,4.75763889 3.34375,4.80194444 C3.23972222,4.89 3.12,4.94319444 2.98152778,4.94805556 C2.8775,4.95138889 2.77763889,4.9325 2.68138889,4.89333333 C2.61166667,4.86486111 2.54305556,4.83305556 2.47236111,4.80736111 C2.24291667,4.72402778 2.01472222,4.735 1.78902778,4.82416667 C1.70763889,4.85638889 1.62736111,4.89194444 1.54444444,4.91986111 C1.44833333,4.95208333 1.34861111,4.96513889 1.24708333,4.94597222 C1.15847222,4.92944444 1.08097222,4.88819444 1.00902778,4.835 C0.919722222,4.76888889 0.844722222,4.68833333 0.774583333,4.60305556 C0.4425,4.19805556 0.219583333,3.74013889 0.111944444,3.22722222 C0.0655555556,3.00666667 0.0433333333,2.78430556 0.0569444444,2.55888889 C0.0729166667,2.28861111 0.135694444,2.03125 0.280138889,1.79930556 C0.461388889,1.50777778 0.717083333,1.31680556 1.05347222,1.23805556 C1.25583333,1.19041667 1.45263889,1.20986111 1.64555556,1.28416667 C1.74708333,1.32305556 1.84888889,1.36152778 1.95083333,1.39972222 C2.04472222,1.435 2.13819444,1.435 2.23222222,1.39902778 C2.33625,1.35930556 2.44041667,1.31972222 2.54486111,1.28097222 C2.65194444,1.24194444 2.76083333,1.21 2.87444444,1.20097222 C3.04444444,1.18722222 3.21027778,1.20930556 3.37166667,1.26333333 C3.60041667,1.33986111 3.78652778,1.47527778 3.92708333,1.6725 C3.93083333,1.67791667 3.935,1.68388889 3.93777778,1.68819444 C3.58333333,1.93527778 3.38152778,2.26166667 3.41083333,2.70361111 C3.44041667,3.14583333 3.67847222,3.445 4.06875,3.63916667 Z M2.08055556,1.14625 C2.18513889,1.14902778 2.28569444,1.12888889 2.3825,1.09041667 C2.82402778,0.915138889 3.05486111,0.448055556 3.04791667,0.0908333333 C3.04736111,0.0620833333 3.04541667,0.0333333333 3.04416667,0 C2.99875,0.00680555556 2.95736111,0.01 2.91763889,0.02 C2.59527778,0.0990277778 2.34722222,0.278888889 2.18416667,0.570138889 C2.08875,0.740694444 2.03569444,0.921805556 2.05194444,1.11972222 C2.05305556,1.14069444 2.06069444,1.14597222 2.08055556,1.14625 Z" id="Shape"></path>
        </g>
        <text id="Pay" font-family="SFProDisplay-Bold, SF Pro Display" font-size="6" font-weight="bold" fill="#549ED1">
            <tspan x="9" y="14">Pay</tspan>
        </text>
    </g>
</svg>