<?xml version="1.0" encoding="UTF-8"?>
<svg width="24px" height="24px" viewBox="0 0 24 24" version="1.1" xmlns="http://www.w3.org/2000/svg" xmlns:xlink="http://www.w3.org/1999/xlink">
    <title>cal_btn_hover_abc_POC@1x</title>
    <defs>
        <path d="M15.3,2.05 L13.35,2.05 L13.35,1 C13.35,0.585786438 13.0142136,0.25 12.6,0.25 C12.1857864,0.25 11.85,0.585786438 11.85,1 L11.85,2 L6.15,2 L6.15,1 C6.15,0.585786438 5.81421356,0.25 5.4,0.25 C4.98578644,0.25 4.65,0.585786438 4.65,1 L4.65,2 L2.7,2 C2.01494508,1.9998683 1.35864862,2.27538093 0.878967222,2.76446785 C0.399285822,3.25355477 0.136567538,3.91507677 0.15,4.6 L0.15,17.2 C0.15,17.876302 0.418659943,18.5249045 0.896877708,19.0031223 C1.37509547,19.4813401 2.02369795,19.75 2.7,19.75 L15.3,19.75 C16.7083261,19.75 17.85,18.6083261 17.85,17.2 L17.85,4.6 C17.85,3.19167389 16.7083261,2.05 15.3,2.05 Z M2.7,3.55 L4.7,3.55 L4.7,4.55 C4.7,4.96421356 5.03578644,5.3 5.45,5.3 C5.86421356,5.3 6.2,4.96421356 6.2,4.55 L6.2,3.55 L11.9,3.55 L11.9,4.55 C11.9,4.96421356 12.2357864,5.3 12.65,5.3 C13.0642136,5.3 13.4,4.96421356 13.4,4.55 L13.4,3.55 L15.3,3.55 C15.5737686,3.53629421 15.8411614,3.63556885 16.039656,3.82461125 C16.2381505,4.01365364 16.3503429,4.27588874 16.3500008,4.55 L16.3500008,7.45 L1.65,7.45 L1.65,4.6 C1.63547437,4.31731945 1.74142655,4.04172466 1.9415756,3.8415756 C2.14172466,3.64142655 2.41731945,3.53547437 2.7,3.55 Z M15.3,18.25 L2.7,18.25 C2.42588874,18.2503429 2.16365364,18.1381505 1.97461125,17.939656 C1.78556885,17.7411614 1.68629421,17.4737686 1.7,17.2 L1.7,9 L16.4,9 L16.4,17.2 C16.4161368,17.4920644 16.3035872,17.7765514 16.0919986,17.9785223 C15.88041,18.1804933 15.5909985,18.2796964 15.3,18.25 Z" id="path-1"></path>
    </defs>
    <g id="cal_btn_hover_abc_POC" stroke="none" stroke-width="1" fill="none" fill-rule="evenodd">
        <g id="icons/action/calendar">
            <g id="calendar" stroke-width="1" fill-rule="evenodd" transform="translate(3.000000, 2.000000)">
                <g id="colors/35C3EF">
                    <mask id="mask-2" fill="white">
                        <use xlink:href="#path-1"></use>
                    </mask>
                    <use id="Mask" fill="#0094D4" fill-rule="nonzero" xlink:href="#path-1"></use>
                    <g mask="url(#mask-2)" id="colors/549ED1">
                        <g transform="translate(-3.000000, -2.000000)">
                            <g>
                                <rect fill="#549ED1" x="0" y="0" width="24" height="24"></rect>
                            </g>
                        </g>
                    </g>
                </g>
            </g>
            <rect id="frame" stroke="#FFFFFF" stroke-width="0.01" opacity="0.01" x="0.005" y="0.005" width="23.99" height="23.99"></rect>
        </g>
    </g>
</svg>