<?xml version="1.0" encoding="UTF-8"?>
<svg width="24px" height="24px" viewBox="0 0 24 24" version="1.1" xmlns="http://www.w3.org/2000/svg" xmlns:xlink="http://www.w3.org/1999/xlink">
    <title>chip_btn_hover_POC@1x</title>
    <g id="chip_btn_hover_POC" stroke="none" stroke-width="1" fill="none" fill-rule="evenodd" stroke-linecap="round" stroke-linejoin="round">
        <g id="Group-12" transform="translate(2.000000, 3.000000)" stroke="#549ED1" stroke-width="1.5">
            <g id="Group-3">
                <path d="M5.54298485,3.50939274 C7.43073222,5.35762001 8.84095564,7.45111176 9.65850391,9.95034735 C10.4869739,7.45685669 11.8940407,5.34328924 13.7797679,3.51223364 C13.2988349,3.30592107 12.8478891,3.1074999 12.3927767,2.91905344 C12.0993432,2.79758913 11.8706191,2.61640275 11.8805938,2.27669409 C11.890821,1.92846271 12.1442294,1.77959948 12.4486478,1.69247851 C14.3713067,1.14229062 16.2911878,0.582380535 18.2165613,0.041977972 C18.9370139,-0.160231071 19.4821513,0.400752244 19.2815837,1.11634372 C18.7452215,3.02984859 18.20343,4.94183832 17.6632169,6.85426996 C17.6519164,6.89442136 17.6327245,6.93230005 17.6205402,6.97219893 C17.5370177,7.24618808 17.3734449,7.43684412 17.0737614,7.46247536 C16.762083,7.48905357 16.5887249,7.29359956 16.4738893,7.04063308 C16.2793191,6.61203577 16.0969333,6.17794605 15.9086131,5.74650783 C15.8627799,5.64158388 15.8134745,5.53817507 15.7440933,5.38666033 C15.4261649,5.72876798 15.1259132,6.04574944 14.8324165,6.36879149 C13.1118404,8.26241005 12.1249113,10.4904974 11.8673363,13.0286218 C11.7720082,13.967445 11.7809097,14.916811 11.7430942,15.8614423 C11.737223,16.0084747 11.7447987,16.1565804 11.7306573,16.302729 C11.6663267,16.9688256 11.3018075,17.3023475 10.6341957,17.305504 C9.982051,17.3085343 9.32984319,17.3092919 8.67769851,17.304999 C8.00541499,17.3006429 7.60314336,16.90399 7.58489846,16.228613 C7.56078237,15.3353705 7.57839596,14.4394134 7.51337088,13.5493274 C7.32890169,11.0240187 6.48534339,8.7456158 4.85321401,6.7876666 C4.45889691,6.31462497 4.02152437,5.87750495 3.56824278,5.38501892 C3.3258192,5.95168404 3.11761269,6.45357661 2.89633805,6.94959798 C2.77291667,7.22623864 2.61029085,7.47983643 2.25353677,7.4623491 C1.89810845,7.44492491 1.74545735,7.18305694 1.66250304,6.89164359 C1.11837574,4.97984326 0.580182762,3.06627526 0.0488079522,1.15093959 C-0.167100549,0.372532624 0.356446,-0.149183122 1.12910803,0.0661571988 C3.03453211,0.597279484 4.93850418,1.13319974 6.84291817,1.66760484 C7.21122524,1.77095052 7.44430541,1.98919487 7.44638874,2.27038097 C7.44897712,2.6120467 7.22467217,2.79443257 6.93559468,2.91697011 C6.48218683,3.10907817 6.02934716,3.30238573 5.54298485,3.50939274" id="Fill-1"></path>
            </g>
        </g>
    </g>
</svg>