<?xml version="1.0" encoding="UTF-8"?>
<svg width="21px" height="16px" viewBox="0 0 21 16" version="1.1" xmlns="http://www.w3.org/2000/svg" xmlns:xlink="http://www.w3.org/1999/xlink">
    <title>label_abc@1x</title>
    <g id="label_abc" stroke="none" stroke-width="1" fill="none" fill-rule="evenodd">
        <g id="Group">
            <path d="M6.54138489,0 L15.6754909,0 C17.7546805,-8.26030152e-16 19.4401968,1.68551624 19.4401968,3.76470588 C19.4401968,4.03625027 19.4108177,4.30699769 19.3525724,4.57222182 L17.4923648,13.0428101 C17.1131291,14.7696868 15.5833113,16 13.8152833,16 L4.68117728,16 C2.60198763,16 0.916471394,14.3144838 0.916471394,12.2352941 C0.916471394,11.9637497 0.945850473,11.6930023 1.00409577,11.4277782 L2.86430338,2.95718994 C3.24353906,1.2303132 4.7733569,1.6570491e-15 6.54138489,0 Z" id="Rectangle" fill="#848E99"></path>
            <g id="Apple_logo_black" transform="translate(6.000000, 2.000000)" fill="#FFFFFF" fill-rule="nonzero">
                <path d="M8.15867955,7.79303628 C8.00906318,8.14240839 7.83196607,8.46400341 7.62677771,8.75967367 C7.3470863,9.1627473 7.11808153,9.44175142 6.94159508,9.5966852 C6.66801075,9.85099841 6.3748845,9.98124127 6.0609951,9.98864863 C5.83565442,9.98864863 5.56390191,9.92383549 5.24756993,9.79235863 C4.93019985,9.6614975 4.63853919,9.5966852 4.37185536,9.5966852 C4.09216411,9.5966852 3.7921982,9.6614975 3.47134721,9.79235863 C3.1500073,9.92383549 2.89114038,9.99235231 2.69321903,9.99914225 C2.39221503,10.0121047 2.09218837,9.87815817 1.79271088,9.5966852 C1.60156835,9.42817154 1.36248734,9.13929122 1.07607843,8.73004423 C0.768784569,8.29302108 0.516146412,7.78624634 0.318225138,7.20848611 C0.10625826,6.58443089 0,5.98012824 0,5.39508448 C0,4.72491966 0.143265449,4.14691246 0.430223779,3.66254436 C0.655747753,3.27348231 0.95577463,2.96657794 1.33128135,2.741276 C1.7067884,2.5159744 2.11252395,2.40116309 2.54946532,2.39381747 C2.78854616,2.39381747 3.10206932,2.4685683 3.49168279,2.61547747 C3.88019717,2.76288041 4.12965984,2.83763124 4.23903239,2.83763124 C4.32080237,2.83763124 4.59792879,2.75022632 5.06772465,2.57597259 C5.51199426,2.41437252 5.8869514,2.34746073 6.19412323,2.37381793 C7.02647964,2.44171717 7.65181554,2.77337386 8.06768841,3.37088657 C7.32327005,3.82679875 6.95503016,4.46535956 6.96235824,5.28453219 C6.96907574,5.92259915 7.19808051,6.45357061 7.64815137,6.87516306 C7.85211823,7.07083581 8.07990191,7.22206583 8.33333333,7.32947011 C8.27837293,7.49057625 8.22035837,7.64489261 8.15867955,7.79303628 Z M6.24969529,0.200056937 C6.24969529,0.700171112 6.06893385,1.1671263 5.70863312,1.59933517 C5.27382892,2.11314698 4.74791191,2.41005142 4.17759808,2.36320108 C4.17033108,2.30320281 4.16611733,2.2400567 4.16611733,2.17370077 C4.16611733,1.69359169 4.37289352,1.17978013 4.74009533,0.759669384 C4.92342102,0.546959957 5.15657854,0.370094946 5.43932328,0.229006375 C5.7214572,0.0900229289 5.98832429,0.0131620901 6.23931338,0 C6.24664204,0.0668574523 6.24969529,0.133719112 6.24969529,0.200050451 L6.24969529,0.200056937 Z" id="path4"></path>
            </g>
        </g>
    </g>
</svg>