<?xml version="1.0" encoding="UTF-8"?>
<svg width="24px" height="24px" viewBox="0 0 24 24" version="1.1" xmlns="http://www.w3.org/2000/svg" xmlns:xlink="http://www.w3.org/1999/xlink">
    <title>loc_btn_default_abc_POC@1x</title>
    <defs>
        <path d="M10,23.7500368 C9.84987016,23.7515167 9.70302168,23.7060636 9.58,23.62 C9.2,23.37 0.25,17.32 0.25,10 C0.25,4.61522369 4.61522369,0.25 10,0.25 C15.3847763,0.25 19.75,4.61522369 19.75,10 C19.75,17.32 10.8,23.37 10.42,23.62 C10.2969783,23.7060636 10.1501298,23.7515167 10,23.7500368 L10,23.7500368 Z M10,1.75 C5.44593511,1.75551007 1.75551007,5.44593511 1.75,10 C1.75,15.68 8.27,20.82 10,22.08 C11.73,20.82 18.25,15.68 18.25,10 C18.2444899,5.44593511 14.5540649,1.75551007 10,1.75 Z M10,13.75 C7.92893219,13.75 6.25,12.0710678 6.25,10 C6.25,7.92893219 7.92893219,6.25 10,6.25 C12.0710678,6.25 13.75,7.92893219 13.75,10 C13.75,12.0710678 12.0710678,13.75 10,13.75 L10,13.75 Z M10,7.75 C8.75735931,7.75 7.75,8.75735931 7.75,10 C7.75,11.2426407 8.75735931,12.25 10,12.25 C11.2426407,12.25 12.25,11.2426407 12.25,10 C12.25,8.75735931 11.2426407,7.75 10,7.75 Z" id="path-1"></path>
    </defs>
    <g id="loc_btn_default_abc_POC" stroke="none" stroke-width="1" fill="none" fill-rule="evenodd">
        <g id="icons/communication/location-pin">
            <g id="location-pin" stroke-width="1" fill-rule="evenodd" transform="translate(2.000000, 0.000000)">
                <g id="colors/35C3EF">
                    <mask id="mask-2" fill="white">
                        <use xlink:href="#path-1"></use>
                    </mask>
                    <use id="Mask" fill="#0094D4" fill-rule="nonzero" xlink:href="#path-1"></use>
                    <g mask="url(#mask-2)" id="colors/6E747C">
                        <g transform="translate(-2.000000, 0.000000)">
                            <g>
                                <rect fill="#6E747C" x="0" y="0" width="24" height="24"></rect>
                            </g>
                        </g>
                    </g>
                </g>
            </g>
            <rect id="frame" stroke="#FFFFFF" stroke-width="0.01" opacity="0.01" x="0.005" y="0.005" width="23.99" height="23.99"></rect>
        </g>
    </g>
</svg>