<?xml version="1.0" encoding="UTF-8"?>
<svg width="24px" height="24px" viewBox="0 0 24 24" version="1.1" xmlns="http://www.w3.org/2000/svg" xmlns:xlink="http://www.w3.org/1999/xlink">
    <title>pay_btn_default_rcs_POC@1x</title>
    <g id="pay_btn_default_rcs_POC" stroke="none" stroke-width="1" fill="none" fill-rule="evenodd">
        <g id="Group-11" transform="translate(3.000000, 3.000000)">
            <path d="M8.9887218,14.25 C9.28195489,14.25 9.53007519,14 9.53007519,13.6904762 L9.53007519,13.0833333 C11.1879699,12.9047619 12,11.8809524 12,10.5714286 C12,8.95238095 10.7030075,8.47619048 9.53007519,8.1547619 L9.53007519,6.48809524 C9.85714286,6.57142857 10.1729323,6.70238095 10.4661654,6.9047619 C10.5789474,6.97619048 10.7030075,7.02380952 10.8496241,7.02380952 C11.2556391,7.02380952 11.593985,6.66666667 11.593985,6.23809524 C11.593985,5.95238095 11.4360902,5.69047619 11.2218045,5.55952381 C10.7142857,5.22619048 10.1616541,5.03571429 9.53007519,4.96428571 L9.53007519,4.30952381 C9.53007519,4 9.28195489,3.75 8.9887218,3.75 C8.70676692,3.75 8.45864662,4 8.45864662,4.30952381 L8.45864662,4.94047619 C6.94736842,5.0952381 6.03383459,6.11904762 6.03383459,7.33333333 C6.03383459,8.94047619 7.29699248,9.41666667 8.45864662,9.71428571 L8.45864662,11.5833333 C7.96240602,11.5 7.53383459,11.2857143 7.16165414,11.0119048 C7.04887218,10.9285714 6.90225564,10.8690476 6.7443609,10.8690476 C6.32706767,10.8690476 6,11.2261905 6,11.6547619 C6,11.9285714 6.13533835,12.1785714 6.32706767,12.3214286 C6.89097744,12.7380952 7.59022556,13.0238095 8.45864662,13.0952381 L8.45864662,13.6904762 C8.45864662,14 8.70676692,14.25 8.9887218,14.25 Z M8.56015038,7.9047619 C8.04135338,7.76190476 7.68045113,7.55952381 7.68045113,7.19047619 C7.68045113,6.76190476 7.98496241,6.45238095 8.56015038,6.39285714 L8.56015038,7.9047619 Z M9.42857143,11.6190476 L9.42857143,9.95238095 C9.96992481,10.1190476 10.3646617,10.3214286 10.3646617,10.7619048 C10.3646617,11.1547619 10.0714286,11.5238095 9.42857143,11.6190476 Z" id="$" fill="#6E747C" fill-rule="nonzero"></path>
            <circle id="Oval" stroke="#6E747C" stroke-width="1.5" cx="9" cy="9" r="9"></circle>
        </g>
    </g>
</svg>