<?xml version="1.0" encoding="UTF-8"?>
<svg width="24px" height="24px" viewBox="0 0 24 24" version="1.1" xmlns="http://www.w3.org/2000/svg" xmlns:xlink="http://www.w3.org/1999/xlink">
    <title>plugin_btn_default_rcs_POC@1x</title>
    <g id="plugin_btn_default_rcs_POC" stroke="none" stroke-width="1" fill="none" fill-rule="evenodd">
        <g id="786285" transform="translate(2.000000, 2.000000)" fill="#6E747C" fill-rule="nonzero" stroke="#6E747C" stroke-width="0.25">
            <path d="M17.5312891,10.5859375 L19.4140625,10.5859375 C19.7376563,10.5859375 20,10.3235938 20,10 L20,4.3515625 C20,4.02796875 19.7376563,3.765625 19.4140625,3.765625 L14.3515625,3.765625 L14.3515625,2.46875 C14.3515625,1.10746094 13.2440625,0 11.8828125,0 C10.5215625,0 9.4140625,1.1075 9.4140625,2.46875 L9.4140625,3.765625 L4.3515625,3.765625 C4.02796875,3.765625 3.765625,4.02796875 3.765625,4.3515625 L3.765625,9.4140625 L2.46875,9.4140625 C1.1075,9.4140625 0,10.5215625 0,11.8828125 C0,13.2440625 1.1075,14.3515625 2.46875,14.3515625 L3.765625,14.3515625 L3.765625,19.4140625 C3.765625,19.7376563 4.02796875,20 4.3515625,20 L10,20 C10.3235938,20 10.5859375,19.7376563 10.5859375,19.4140625 L10.5859375,17.53125 C10.5859375,16.8161328 11.1677344,16.234375 11.8828125,16.234375 C12.5978906,16.234375 13.1796875,16.8161719 13.1796875,17.53125 L13.1796875,19.4140625 C13.1796875,19.7376563 13.4420312,20 13.765625,20 L19.4140625,20 C19.7376563,20 20,19.7376563 20,19.4140625 L20,13.765625 C20,13.4420312 19.7376563,13.1796875 19.4140625,13.1796875 L17.5312891,13.1796875 C16.8161328,13.1796875 16.234375,12.5978906 16.234375,11.8828125 C16.234375,11.1677344 16.8161328,10.5859375 17.5312891,10.5859375 Z M17.5312891,14.3515625 L18.828125,14.3515625 L18.828125,18.828125 L14.3515625,18.828125 L14.3515625,17.53125 C14.3515625,16.1699609 13.2440625,15.0625 11.8828125,15.0625 C10.5215625,15.0625 9.4140625,16.1699609 9.4140625,17.53125 L9.4140625,18.828125 L4.9375,18.828125 L4.9375,13.765625 C4.9375,13.4420312 4.67515625,13.1796875 4.3515625,13.1796875 L2.46875,13.1796875 C1.75363281,13.1796875 1.171875,12.5978906 1.171875,11.8828125 C1.171875,11.1677344 1.75367187,10.5859375 2.46875,10.5859375 L4.3515625,10.5859375 C4.67515625,10.5859375 4.9375,10.3235938 4.9375,10 L4.9375,4.9375 L10,4.9375 C10.3235938,4.9375 10.5859375,4.67515625 10.5859375,4.3515625 L10.5859375,2.46875 C10.5859375,1.75363281 11.1677344,1.171875 11.8828125,1.171875 C12.5978906,1.171875 13.1796875,1.75367187 13.1796875,2.46875 L13.1796875,4.3515625 C13.1796875,4.67515625 13.4420312,4.9375 13.765625,4.9375 L18.828125,4.9375 L18.828125,9.4140625 L17.5312891,9.4140625 C16.1699609,9.4140625 15.0625,10.5215625 15.0625,11.8828125 C15.0625,13.2440625 16.1699609,14.3515625 17.5312891,14.3515625 Z" id="Shape"></path>
        </g>
    </g>
</svg>